<?xml version="1.0" standalone="no"?>
<!DOCTYPE svg PUBLIC "-//W3C//DTD SVG 20010904//EN"
 "http://www.w3.org/TR/2001/REC-SVG-20010904/DTD/svg10.dtd">
<svg version="1.0" xmlns="http://www.w3.org/2000/svg"
 width="225.000000pt" height="225.000000pt" viewBox="0 0 225.000000 225.000000"
 preserveAspectRatio="xMidYMid meet">

<g transform="translate(0.000000,225.000000) scale(0.100000,-0.100000)"
fill="currentColor" stroke="none">
<path d="M901 1397 c-296 -172 -458 -272 -467 -288 -20 -36 -17 -111 7 -174
34 -90 92 -142 279 -250 91 -52 172 -95 182 -95 14 0 882 495 916 522 17 14
15 73 -4 114 -9 18 -33 49 -54 68 l-39 35 45 26 c37 22 45 31 42 52 -3 22 -31
42 -193 136 -118 68 -202 111 -225 113 -31 4 -89 -27 -489 -259z m691 112 c98
-56 177 -103 175 -105 -2 -2 -189 -111 -417 -242 l-413 -239 -193 111 c-106
61 -192 112 -191 113 1 0 182 105 402 232 276 160 409 231 429 231 19 0 93
-36 208 -101z m136 -239 c66 -48 81 -99 40 -137 -22 -19 -795 -468 -807 -468
-2 0 -8 14 -13 30 -14 57 -71 107 -202 180 -69 39 -126 72 -126 75 0 6 82 50
93 50 4 0 55 -27 112 -60 57 -33 108 -60 112 -60 4 0 170 94 368 209 198 115
365 210 371 210 6 1 29 -12 52 -29z m-1127 -201 c32 -18 59 -36 59 -40 0 -5
-18 -18 -40 -29 -32 -16 -40 -26 -40 -48 0 -25 11 -35 103 -87 175 -101 207
-123 222 -158 16 -39 4 -71 -25 -62 -35 11 -315 177 -344 203 -67 62 -98 190
-56 232 28 28 52 25 121 -11z"/>
<path d="M1188 1437 c-144 -82 -175 -103 -166 -114 6 -8 18 -13 27 -11 9 2 96
48 194 103 157 87 176 101 161 112 -10 7 -23 13 -28 12 -6 0 -91 -46 -188
-102z"/>
<path d="M1283 1382 c-94 -53 -174 -100 -177 -103 -3 -3 4 -10 17 -16 20 -9
46 2 203 89 98 56 181 103 184 105 7 6 -23 23 -40 22 -8 0 -92 -44 -187 -97z"/>
<path d="M1378 1327 c-98 -55 -178 -104 -178 -109 0 -4 10 -10 23 -13 16 -4
71 22 205 97 170 96 181 103 160 115 -13 7 -25 12 -28 12 -3 -1 -85 -46 -182
-102z"/>
<path d="M831 1236 c-112 -63 -113 -64 -90 -79 13 -8 65 -40 115 -70 l91 -55
116 65 c64 36 115 69 112 73 -7 11 -209 130 -221 130 -5 0 -60 -29 -123 -64z"/>
<path d="M1331 1020 c-189 -109 -347 -202 -352 -207 -5 -5 -3 -17 5 -28 13
-17 34 -7 367 186 194 112 354 209 356 216 3 6 -4 16 -14 21 -15 8 -84 -28
-362 -188z"/>
</g>
</svg>


